<!DOCTYPE svg PUBLIC "-//W3C//DTD SVG 1.1//EN" "http://www.w3.org/Graphics/SVG/1.1/DTD/svg11.dtd">

<!-- Uploaded to: SVG Repo, www.svgrepo.com, Transformed by: SVG Repo Mixer Tools -->
<svg fill="#00aaff" version="1.1" id="Capa_1" xmlns="http://www.w3.org/2000/svg" xmlns:xlink="http://www.w3.org/1999/xlink" width="64px" height="64px" viewBox="-29.33 -29.33 87.99 87.99" xml:space="preserve" stroke="#00aaff" stroke-width="2.9334"><g id="SVGRepo_bgCarrier" stroke-width="0" transform="translate(10.12023,10.12023), scale(0.31)"><rect x="-29.33" y="-29.33" width="87.99" height="87.99" rx="43.995" fill="#ffffff" strokewidth="0"></rect></g><g id="SVGRepo_tracerCarrier" stroke-linecap="round" stroke-linejoin="round"></g><g id="SVGRepo_iconCarrier"> <g> <path d="M14.666,0C6.578,0,0,6.58,0,14.668c0,8.087,6.578,14.666,14.666,14.666s14.668-6.579,14.668-14.666 C29.334,6.58,22.754,0,14.666,0z M14.666,25.334C8.784,25.334,4,20.549,4,14.668C4,8.785,8.784,4,14.666,4 c5.883,0,10.668,4.785,10.668,10.668C25.334,20.549,20.547,25.334,14.666,25.334z"></path> </g> </g></svg>